<svg width="14" height="14" viewBox="0 0 14 14" fill="none" xmlns="http://www.w3.org/2000/svg">
<path fill-rule="evenodd" clip-rule="evenodd" d="M2.33331 0.333313C1.22874 0.333313 0.333313 1.22874 0.333313 2.33331V11.3333C0.333313 12.4379 1.22874 13.3333 2.33331 13.3333H11C12.1045 13.3333 13 12.4379 13 11.3333V8.99998C13 8.63179 12.7015 8.33331 12.3333 8.33331C11.9651 8.33331 11.6666 8.63179 11.6666 8.99998V11.3333C11.6666 11.7015 11.3682 12 11 12H2.33331C1.96512 12 1.66665 11.7015 1.66665 11.3333V2.33331C1.66665 1.96512 1.96512 1.66665 2.33331 1.66665H7.66665C8.03484 1.66665 8.33331 1.36817 8.33331 0.99998C8.33331 0.63179 8.03484 0.333313 7.66665 0.333313H2.33331ZM3.66659 9.27181L3.88128 7.47932L9.80113 2.82585L11.3789 4.83303L5.45908 9.4865L3.66659 9.27181ZM13.0119 2.93889C13.176 3.14764 13.1399 3.44878 12.9312 3.61287L11.9517 4.38284L10.3738 2.37565L11.3534 1.60568C11.5621 1.44159 11.8632 1.47766 12.0273 1.68641L13.0119 2.93889Z" fill="#5E35B1"/>
</svg>
