<svg width="16" height="16" viewBox="0 0 16 16" fill="none" xmlns="http://www.w3.org/2000/svg">
<path fill-rule="evenodd" clip-rule="evenodd" d="M3.33331 1.33333C2.22874 1.33333 1.33331 2.22876 1.33331 3.33333V12.3333C1.33331 13.4379 2.22874 14.3333 3.33331 14.3333H12C13.1045 14.3333 14 13.4379 14 12.3333V10C14 9.63181 13.7015 9.33333 13.3333 9.33333C12.9651 9.33333 12.6666 9.63181 12.6666 10V12.3333C12.6666 12.7015 12.3682 13 12 13H3.33331C2.96512 13 2.66665 12.7015 2.66665 12.3333V3.33333C2.66665 2.96514 2.96512 2.66666 3.33331 2.66666H8.66665C9.03484 2.66666 9.33331 2.36818 9.33331 1.99999C9.33331 1.63181 9.03484 1.33333 8.66665 1.33333H3.33331ZM4.66659 10.2718L4.88128 8.47933L10.8011 3.82587L12.3789 5.83305L6.45908 10.4865L4.66659 10.2718ZM14.0119 3.93891C14.176 4.14765 14.1399 4.44879 13.9312 4.61288L12.9517 5.38285L11.3738 3.37567L12.3534 2.6057C12.5621 2.44161 12.8632 2.47768 13.0273 2.68642L14.0119 3.93891Z" fill="#5E35B1"/>
</svg>
