<svg width="12" height="12" viewBox="0 0 12 12" fill="none" xmlns="http://www.w3.org/2000/svg">
<path fill-rule="evenodd" clip-rule="evenodd" d="M5.41905 8.68333C7.22318 8.68333 8.68571 7.2208 8.68571 5.41667C8.68571 3.61254 7.22318 2.15 5.41905 2.15C3.61492 2.15 2.15238 3.61254 2.15238 5.41667C2.15238 7.2208 3.61492 8.68333 5.41905 8.68333ZM5.41905 10.0833C7.99638 10.0833 10.0857 7.994 10.0857 5.41667C10.0857 2.83934 7.99638 0.75 5.41905 0.75C2.84172 0.75 0.75238 2.83934 0.75238 5.41667C0.75238 7.994 2.84172 10.0833 5.41905 10.0833Z" fill="#BABDCD"/>
<path fill-rule="evenodd" clip-rule="evenodd" d="M7.83839 7.83601C8.11176 7.56264 8.55497 7.56264 8.82834 7.83601L11.5472 10.5549C11.8206 10.8282 11.8206 11.2714 11.5472 11.5448C11.2738 11.8182 10.8306 11.8182 10.5572 11.5448L7.83839 8.82596C7.56502 8.55259 7.56502 8.10938 7.83839 7.83601Z" fill="#BABDCD"/>
</svg>
